<?xml version="1.0" encoding="utf-8"?>
<!-- Generator: Adobe Illustrator 17.0.0, SVG Export Plug-In . SVG Version: 6.00 Build 0)  -->
<!DOCTYPE svg PUBLIC "-//W3C//DTD SVG 1.1//EN" "http://www.w3.org/Graphics/SVG/1.1/DTD/svg11.dtd">
<svg version="1.1" id="Calque_1" xmlns="http://www.w3.org/2000/svg" xmlns:xlink="http://www.w3.org/1999/xlink" x="0px" y="0px"
	 width="16px" height="16px" viewBox="0 0 16 16" enable-background="new 0 0 16 16" xml:space="preserve">
<g transform="translate(0.000000,16.000000) scale(0.000320,-0.000320)" display="none">
	<path display="inline" d="M0.006,1.082C0.02,1.106,0.045,1.148,0.045,1.15c0,0.001,0.008,0.014,0.018,0.03
		C0.072,1.196,0.08,1.211,0.08,1.213c0,0.002,0.002,0.003,0.003,0.003c0.002,0,0.003,0.001,0.003,0.003
		c0,0.002,0.023,0.043,0.052,0.092c0.028,0.049,0.055,0.095,0.06,0.103c0.004,0.008,0.01,0.018,0.013,0.023
		c0.028,0.048,0.06,0.104,0.06,0.107c0.001,0.002,0.003,0.004,0.004,0.004S0.278,1.55,0.278,1.552c0,0.002,0.015,0.028,0.033,0.06
		c0.056,0.097,0.157,0.271,0.162,0.28C0.476,1.897,0.48,1.904,0.482,1.907C0.491,1.921,0.574,2.066,0.59,2.094
		c0.004,0.007,0.024,0.041,0.044,0.076c0.02,0.034,0.039,0.069,0.044,0.077c0.004,0.008,0.009,0.016,0.011,0.018
		C0.69,2.266,0.695,2.276,0.701,2.286C0.707,2.297,0.713,2.308,0.715,2.31c0.004,0.005,0.007,0.011,0.02,0.035
		C0.74,2.353,0.744,2.361,0.746,2.363c0.001,0.002,0.007,0.011,0.012,0.021C0.775,2.416,0.841,2.53,0.844,2.533
		C0.845,2.534,0.848,2.54,0.85,2.544c0.005,0.009,0.013,0.024,0.033,0.058C0.891,2.615,0.9,2.63,0.902,2.635
		C0.905,2.64,0.921,2.667,0.937,2.694c0.036,0.062,0.116,0.2,0.122,0.211C1.061,2.91,1.066,2.918,1.069,2.923
		c0.004,0.005,0.007,0.012,0.009,0.014C1.079,2.94,1.086,2.952,1.093,2.965C1.1,2.977,1.11,2.994,1.114,3.002
		c0.015,0.026,0.02,0.036,0.057,0.099c0.02,0.034,0.039,0.067,0.042,0.073c0.012,0.021,0.018,0.032,0.027,0.047
		c0.005,0.009,0.01,0.018,0.012,0.021C1.253,3.244,1.257,3.25,1.26,3.255C1.263,3.26,1.277,3.284,1.291,3.308
		c0.014,0.024,0.057,0.098,0.095,0.164C1.424,3.538,1.471,3.62,1.491,3.654c0.042,0.073,0.037,0.065,0.064,0.111
		c0.012,0.02,0.023,0.04,0.026,0.045c0.003,0.005,0.007,0.011,0.008,0.013c0.001,0.003,0.006,0.012,0.012,0.021
		c0.005,0.009,0.012,0.021,0.015,0.026c0.016,0.027,0.02,0.036,0.028,0.049c0.004,0.008,0.009,0.016,0.01,0.018
		C1.656,3.939,1.679,3.98,1.707,4.029C1.735,4.077,1.76,4.121,1.764,4.126C1.767,4.132,1.772,4.14,1.775,4.145
		c0.003,0.005,0.04,0.069,0.082,0.142c0.042,0.073,0.081,0.141,0.086,0.151s0.014,0.025,0.02,0.035
		C1.97,4.482,1.974,4.49,1.974,4.491c0,0.001,0.006,0.012,0.014,0.025c0.008,0.013,0.039,0.068,0.071,0.123
		C2.09,4.693,2.12,4.744,2.125,4.752C2.13,4.76,2.137,4.773,2.142,4.781C2.146,4.789,2.168,4.827,2.19,4.866
		c0.022,0.039,0.044,0.076,0.048,0.083C2.242,4.956,2.25,4.97,2.256,4.979c0.006,0.01,0.014,0.023,0.018,0.03
		s0.015,0.027,0.026,0.045C2.324,5.097,2.351,5.144,2.36,5.16c0.004,0.007,0.023,0.039,0.042,0.072
		c0.019,0.033,0.037,0.064,0.04,0.069c0.003,0.005,0.009,0.016,0.014,0.023C2.46,5.332,2.464,5.338,2.464,5.339
		c0,0.001,0.009,0.016,0.019,0.034c0.011,0.018,0.019,0.033,0.019,0.034s0.018,0.031,0.029,0.05C2.534,5.46,2.589,5.557,2.608,5.588
		c0.004,0.007,0.014,0.025,0.023,0.04c0.009,0.015,0.016,0.028,0.016,0.028c0,0.001,0.004,0.008,0.01,0.015s0.01,0.015,0.01,0.016
		c0,0.002,0.024,0.043,0.032,0.056c0.002,0.003,0.008,0.013,0.014,0.024C2.727,5.796,2.73,5.8,2.795,5.914
		c0.033,0.057,0.064,0.11,0.068,0.118C2.868,6.04,2.872,6.048,2.874,6.05c0.001,0.002,0.005,0.008,0.009,0.014
		c0.003,0.006,0.02,0.035,0.036,0.064c0.036,0.063,0.043,0.074,0.054,0.094c0.005,0.009,0.011,0.018,0.012,0.021
		c0.005,0.009,0.031,0.053,0.033,0.058C3.02,6.303,3.024,6.31,3.027,6.315C3.03,6.32,3.052,6.357,3.074,6.397
		c0.023,0.04,0.058,0.1,0.078,0.134c0.02,0.034,0.039,0.067,0.042,0.073c0.011,0.02,0.103,0.179,0.125,0.217
		c0.012,0.021,0.027,0.046,0.032,0.056c0.005,0.01,0.011,0.019,0.012,0.021c0.001,0.002,0.005,0.009,0.009,0.015
		c0.011,0.02,0.018,0.032,0.029,0.05c0.005,0.009,0.01,0.018,0.01,0.018s0.005,0.01,0.012,0.021c0.007,0.011,0.043,0.073,0.08,0.139
		c0.037,0.065,0.075,0.13,0.084,0.144C3.596,7.3,3.603,7.312,3.603,7.313c0,0.001,0.003,0.006,0.006,0.011
		c0.005,0.007,0.064,0.109,0.099,0.171c0.003,0.006,0.011,0.019,0.016,0.028C3.73,7.532,3.734,7.54,3.734,7.54
		s0.008,0.014,0.018,0.03c0.01,0.016,0.018,0.03,0.018,0.031c0,0.001,0.002,0.005,0.004,0.007c0.002,0.003,0.009,0.013,0.014,0.023
		c0.005,0.01,0.054,0.095,0.109,0.19c0.055,0.095,0.1,0.173,0.1,0.175C3.997,7.999,3.998,8,4,8c0.002,0,0.003,0.001,0.003,0.003
		c0,0.002,0.007,0.015,0.016,0.029C4.028,8.047,4.037,8.064,4.041,8.07c0.008,0.014,0.026,0.045,0.03,0.051
		c0.002,0.003,0.021,0.036,0.043,0.075s0.042,0.073,0.043,0.075C4.161,8.279,4.24,8.415,4.247,8.429
		c0.003,0.006,0.009,0.015,0.012,0.02c0.004,0.004,0.006,0.009,0.006,0.01c0,0.001,0.012,0.022,0.027,0.047
		C4.324,8.561,4.39,8.675,4.4,8.693C4.404,8.7,4.41,8.71,4.413,8.715C4.417,8.72,4.42,8.727,4.421,8.73
		c0.002,0.004,0.026,0.047,0.033,0.058c0.004,0.008,0.058,0.1,0.066,0.114c0.004,0.007,0.015,0.026,0.024,0.042
		c0.009,0.016,0.02,0.035,0.025,0.043C4.573,8.994,4.585,9.014,4.595,9.03c0.01,0.017,0.019,0.033,0.02,0.035
		c0.001,0.003,0.006,0.011,0.01,0.018C4.691,9.196,4.716,9.24,4.724,9.254c0.005,0.01,0.014,0.025,0.02,0.034
		C4.75,9.297,4.756,9.308,4.756,9.311C4.758,9.315,4.76,9.318,4.762,9.318c0.002,0,0.003,0.001,0.003,0.003
		c0,0.002,0.035,0.063,0.077,0.137c0.043,0.074,0.08,0.138,0.083,0.143c0.016,0.029,0.071,0.123,0.09,0.155
		C5.026,9.777,5.039,9.8,5.044,9.808c0.004,0.008,0.021,0.037,0.038,0.066C5.098,9.902,5.114,9.93,5.117,9.935
		c0.011,0.019,0.018,0.03,0.048,0.082c0.016,0.028,0.032,0.055,0.035,0.061c0.003,0.005,0.024,0.042,0.047,0.082
		c0.023,0.04,0.045,0.077,0.048,0.083c0.02,0.035,0.09,0.156,0.114,0.197c0.012,0.021,0.025,0.043,0.028,0.048
		c0.011,0.02,0.029,0.052,0.032,0.056c0.004,0.007,0.032,0.054,0.041,0.07c0.017,0.031,0.043,0.075,0.045,0.078
		c0.001,0.002,0.006,0.01,0.011,0.019c0.008,0.015,0.076,0.133,0.088,0.154c0.003,0.005,0.008,0.015,0.012,0.021
		c0.01,0.017,0.122,0.212,0.129,0.222c0.003,0.005,0.007,0.012,0.008,0.014c0.001,0.003,0.008,0.015,0.016,0.028
		c0.008,0.013,0.014,0.024,0.014,0.025c0,0.001,0.007,0.013,0.016,0.027c0.009,0.014,0.016,0.027,0.016,0.028
		c0,0.001,0.012,0.022,0.027,0.047c0.027,0.045,0.097,0.166,0.109,0.188c0.003,0.006,0.011,0.019,0.017,0.029
		c0.006,0.01,0.014,0.024,0.018,0.032c0.004,0.008,0.014,0.025,0.022,0.038s0.018,0.031,0.022,0.039
		c0.004,0.008,0.025,0.043,0.044,0.077c0.02,0.034,0.039,0.067,0.042,0.073c0.008,0.014,0.099,0.171,0.108,0.186
		c0.004,0.006,0.008,0.014,0.011,0.019c0.005,0.01,0.076,0.132,0.085,0.147c0.004,0.006,0.008,0.013,0.009,0.016
		c0.001,0.002,0.024,0.043,0.051,0.089c0.027,0.047,0.049,0.086,0.049,0.088s0.002,0.003,0.003,0.003
		c0.002,0,0.003,0.001,0.003,0.003c0,0.002,0.026,0.048,0.058,0.103c0.058,0.1,0.064,0.111,0.077,0.133
		c0.004,0.007,0.026,0.044,0.049,0.084c0.023,0.04,0.045,0.078,0.05,0.086c0.004,0.008,0.009,0.016,0.01,0.018
		c0.002,0.003,0.046,0.079,0.07,0.122c0.012,0.021,0.067,0.116,0.073,0.126c0.004,0.006,0.008,0.013,0.009,0.016
		c0.001,0.003,0.021,0.038,0.045,0.078c0.023,0.04,0.043,0.074,0.043,0.075c0,0.001,0.005,0.009,0.011,0.018
		c0.006,0.009,0.015,0.025,0.02,0.035c0.005,0.01,0.017,0.03,0.025,0.044c0.017,0.029,0.026,0.045,0.05,0.087
		c0.026,0.045,0.037,0.064,0.122,0.211c0.045,0.078,0.086,0.148,0.09,0.155c0.004,0.007,0.023,0.04,0.042,0.074
		c0.019,0.033,0.055,0.095,0.079,0.138c0.024,0.042,0.047,0.081,0.05,0.086c0.004,0.005,0.007,0.012,0.008,0.014
		c0.001,0.003,0.01,0.017,0.019,0.033c0.009,0.016,0.017,0.029,0.017,0.03c0,0.001,0.006,0.011,0.013,0.022
		c0.007,0.012,0.013,0.021,0.013,0.022s0.012,0.021,0.026,0.045c0.014,0.025,0.031,0.054,0.038,0.065
		c0.006,0.012,0.015,0.026,0.019,0.032c0.004,0.006,0.009,0.015,0.011,0.02c0.002,0.005,0.005,0.009,0.006,0.009
		c0.002,0,0.003,0.001,0.003,0.003c0,0.002,0.02,0.038,0.045,0.08s0.045,0.078,0.045,0.078s0.006,0.011,0.013,0.022
		c0.007,0.012,0.016,0.027,0.019,0.032c0.003,0.006,0.009,0.016,0.013,0.023c0.008,0.014,0.035,0.06,0.04,0.07
		c0.002,0.004,0.005,0.009,0.007,0.013c0.002,0.004,0.007,0.012,0.011,0.019c0.004,0.007,0.012,0.02,0.017,0.029
		c0.004,0.009,0.011,0.02,0.014,0.025c0.004,0.004,0.006,0.009,0.006,0.01c0,0.001,0.006,0.011,0.013,0.023
		c0.007,0.012,0.013,0.021,0.013,0.022s0.006,0.011,0.013,0.023c0.007,0.012,0.018,0.03,0.023,0.04
		c0.008,0.015,0.044,0.078,0.055,0.095c0.002,0.003,0.007,0.012,0.011,0.019c0.009,0.015,0.012,0.016,0.016,0.006
		c0.002-0.004,0.006-0.012,0.009-0.017c0.003-0.005,0.009-0.015,0.012-0.021s0.033-0.058,0.067-0.115
		c0.033-0.057,0.064-0.11,0.068-0.118c0.004-0.008,0.013-0.024,0.02-0.035c0.007-0.011,0.012-0.021,0.012-0.021
		s0.006-0.011,0.013-0.022c0.007-0.012,0.013-0.021,0.013-0.022c0-0.001,0.057-0.099,0.064-0.111
		c0.005-0.008,0.044-0.075,0.045-0.078c0.001-0.002,0.008-0.014,0.017-0.028s0.016-0.026,0.016-0.027
		c0-0.001,0.006-0.011,0.013-0.022c0.007-0.012,0.013-0.021,0.013-0.022s0.006-0.012,0.014-0.025
		c0.011-0.019,0.054-0.092,0.095-0.164c0.003-0.005,0.016-0.028,0.029-0.05c0.013-0.022,0.028-0.048,0.033-0.058
		c0.005-0.01,0.011-0.02,0.013-0.022c0.002-0.003,0.005-0.008,0.007-0.011c0.011-0.02,0.023-0.041,0.053-0.094
		c0.019-0.032,0.037-0.064,0.041-0.07c0.004-0.006,0.01-0.017,0.013-0.023c0.014-0.023,0.342-0.592,0.359-0.621
		c0.004-0.008,0.021-0.036,0.036-0.062c0.015-0.027,0.031-0.053,0.034-0.059c0.003-0.006,0.009-0.016,0.012-0.022
		c0.004-0.006,0.023-0.04,0.044-0.075c0.02-0.036,0.056-0.097,0.079-0.137c0.023-0.04,0.055-0.096,0.072-0.125
		c0.017-0.029,0.037-0.065,0.046-0.079c0.009-0.014,0.016-0.027,0.016-0.028s0.002-0.004,0.004-0.007
		c0.002-0.003,0.009-0.014,0.015-0.024c0.008-0.015,0.08-0.14,0.121-0.21c0.004-0.006,0.009-0.016,0.013-0.022
		c0.004-0.006,0.032-0.056,0.064-0.111c0.032-0.055,0.058-0.101,0.058-0.103c0-0.002,0.002-0.003,0.003-0.003
		c0.002,0,0.003-0.002,0.003-0.004s0.003-0.007,0.006-0.012c0.004-0.005,0.01-0.017,0.016-0.026c0.005-0.01,0.042-0.073,0.081-0.141
		c0.039-0.068,0.075-0.13,0.079-0.138c0.004-0.008,0.012-0.022,0.018-0.032c0.012-0.021,0.022-0.037,0.042-0.072
		c0.008-0.014,0.016-0.028,0.018-0.03c0.004-0.006,0.025-0.043,0.07-0.122c0.02-0.034,0.041-0.072,0.048-0.083
		c0.052-0.089,0.071-0.122,0.079-0.136c0.005-0.009,0.015-0.027,0.023-0.039c0.008-0.013,0.014-0.025,0.014-0.027
		c0-0.002,0.001-0.003,0.003-0.003s0.004-0.004,0.006-0.009c0.002-0.005,0.007-0.014,0.012-0.021
		c0.021-0.035,0.089-0.153,0.089-0.155c0-0.001,0.002-0.004,0.004-0.007c0.002-0.003,0.009-0.013,0.014-0.023
		c0.005-0.01,0.014-0.026,0.02-0.035c0.011-0.018,0.12-0.208,0.126-0.219c0.002-0.004,0.005-0.009,0.007-0.011
		c0.002-0.003,0.008-0.013,0.014-0.024s0.013-0.024,0.016-0.029c0.003-0.005,0.008-0.013,0.01-0.018
		c0.017-0.031,0.023-0.041,0.028-0.049c0.004-0.004,0.006-0.009,0.006-0.01c0-0.001,0.025-0.045,0.056-0.099
		s0.056-0.098,0.056-0.099s0.002-0.004,0.004-0.007c0.002-0.003,0.008-0.012,0.013-0.021c0.011-0.019,0.088-0.155,0.108-0.188
		c0.008-0.013,0.015-0.026,0.016-0.028c0.001-0.003,0.004-0.008,0.006-0.011c0.004-0.007,0.03-0.052,0.04-0.069
		c0.004-0.006,0.017-0.029,0.029-0.051c0.013-0.022,0.026-0.044,0.029-0.05c0.003-0.005,0.033-0.057,0.066-0.115
		c0.034-0.058,0.064-0.111,0.068-0.117c0.033-0.058,0.148-0.257,0.156-0.27c0.002-0.004,0.005-0.009,0.006-0.011
		s0.009-0.016,0.018-0.03c0.02-0.035,0.265-0.459,0.271-0.47c0.003-0.005,0.008-0.013,0.011-0.018
		c0.003-0.004,0.009-0.015,0.014-0.025c0.005-0.009,0.017-0.03,0.026-0.046c0.01-0.016,0.02-0.034,0.023-0.039
		c0.005-0.01,0.074-0.127,0.128-0.221c0.016-0.028,0.033-0.057,0.037-0.065c0.004-0.007,0.008-0.015,0.01-0.018
		c0.002-0.002,0.008-0.012,0.013-0.022c0.005-0.01,0.02-0.034,0.031-0.054c0.012-0.02,0.027-0.046,0.033-0.058
		c0.006-0.012,0.013-0.023,0.015-0.026c0.003-0.003,0.004-0.006,0.004-0.007c0-0.001,0.009-0.016,0.019-0.034
		c0.01-0.018,0.023-0.04,0.028-0.049c0.005-0.009,0.023-0.04,0.039-0.068c0.016-0.028,0.033-0.058,0.038-0.066
		c0.004-0.008,0.009-0.016,0.01-0.018c0.001-0.002,0.005-0.008,0.009-0.014c0.004-0.006,0.014-0.026,0.025-0.043
		c0.01-0.018,0.021-0.037,0.025-0.043c0.004-0.006,0.028-0.049,0.055-0.094c0.128-0.222,0.198-0.343,0.208-0.36
		c0.004-0.006,0.028-0.049,0.054-0.094s0.051-0.087,0.053-0.092c0.003-0.005,0.007-0.012,0.008-0.014
		c0.002-0.003,0.01-0.017,0.018-0.031c0.008-0.014,0.017-0.03,0.021-0.037c0.004-0.006,0.03-0.052,0.06-0.103
		c0.029-0.05,0.055-0.096,0.058-0.101c0.003-0.005,0.008-0.015,0.012-0.021c0.004-0.006,0.021-0.036,0.039-0.067
		c0.018-0.031,0.035-0.06,0.037-0.064c0.003-0.004,0.008-0.013,0.011-0.019c0.008-0.014,0.123-0.212,0.132-0.228
		c0.002-0.003,0.005-0.009,0.008-0.014c0.005-0.009,0.038-0.067,0.077-0.134c0.012-0.02,0.022-0.037,0.023-0.04
		s0.004-0.007,0.006-0.011c0.011-0.018,0.078-0.134,0.084-0.145c0.004-0.006,0.011-0.02,0.017-0.029
		c0.005-0.009,0.01-0.017,0.01-0.018c0-0.001,0.009-0.016,0.02-0.035c0.011-0.018,0.022-0.038,0.026-0.044
		c0.003-0.006,0.007-0.013,0.009-0.016c0.002-0.003,0.01-0.017,0.019-0.032c0.009-0.015,0.048-0.083,0.087-0.15
		c0.039-0.068,0.075-0.13,0.079-0.138c0.01-0.017,0.02-0.035,0.026-0.043c0.002-0.004,0.005-0.009,0.006-0.011
		c0.001-0.003,0.027-0.048,0.058-0.101c0.031-0.053,0.06-0.103,0.065-0.112c0.01-0.018,0.037-0.065,0.042-0.072
		c0.002-0.003,0.008-0.013,0.014-0.024c0.006-0.011,0.029-0.051,0.052-0.09c0.048-0.082,0.05-0.087,0.065-0.112
		c0.006-0.011,0.012-0.021,0.014-0.024c0.003-0.004,0.073-0.125,0.088-0.152c0.004-0.007,0.018-0.031,0.03-0.053
		s0.026-0.044,0.029-0.05c0.008-0.013,0.065-0.112,0.071-0.123c0.003-0.005,0.009-0.015,0.013-0.023
		c0.004-0.008,0.024-0.042,0.044-0.076c0.02-0.034,0.039-0.067,0.043-0.074c0.032-0.055,0.087-0.15,0.089-0.154
		c0.002-0.003,0.007-0.013,0.013-0.022c0.006-0.01,0.026-0.045,0.045-0.078c0.019-0.034,0.039-0.067,0.043-0.075
		c0.004-0.008,0.023-0.04,0.041-0.07c0.018-0.031,0.046-0.079,0.062-0.107c0.016-0.028,0.031-0.053,0.033-0.056
		c0.004-0.008,0.058-0.1,0.065-0.114c0.007-0.014,0.109-0.189,0.114-0.197c0.002-0.003,0.016-0.028,0.032-0.056
		c0.055-0.096,0.165-0.287,0.186-0.323c0.008-0.014,0.015-0.026,0.015-0.027c0-0.001,0.004-0.007,0.009-0.015
		c0.004-0.007,0.013-0.021,0.018-0.031c0.005-0.01,0.011-0.02,0.013-0.022c0.002-0.003,0.005-0.007,0.006-0.01
		c0.001-0.003,0.006-0.012,0.012-0.021c0.005-0.009,0.011-0.018,0.012-0.021c0.002-0.004,0.036-0.063,0.046-0.08
		c0.002-0.003,0.018-0.03,0.036-0.062c0.018-0.031,0.036-0.062,0.04-0.069c0.004-0.006,0.009-0.015,0.01-0.018
		c0.002-0.004,0.004-0.009,0.006-0.011c0.002-0.003,0.024-0.042,0.05-0.086c0.026-0.045,0.053-0.092,0.06-0.104
		c0.007-0.012,0.017-0.029,0.021-0.037c0.004-0.008,0.01-0.017,0.012-0.02c0.003-0.003,0.004-0.006,0.004-0.007
		c0-0.001,0.013-0.025,0.029-0.053c0.016-0.028,0.056-0.097,0.088-0.153s0.067-0.115,0.076-0.131
		c0.009-0.016,0.021-0.037,0.028-0.049c0.006-0.011,0.013-0.022,0.015-0.025c0.002-0.002,0.004-0.005,0.004-0.006
		c0-0.002,0.04-0.072,0.053-0.093c0.004-0.007,0.007-0.013,0.007-0.013c0-0.001,0.007-0.013,0.015-0.027
		c0.008-0.014,0.018-0.029,0.02-0.035c0.017-0.03,0.105-0.182,0.113-0.196c0.006-0.01,0.014-0.024,0.019-0.032
		c0.023-0.041,0.026-0.046,0.028-0.047c0.001-0.001,0.003-0.003,0.003-0.004s0.013-0.026,0.03-0.055
		c0.1-0.172,0.159-0.275,0.166-0.287c0.004-0.008,0.013-0.022,0.019-0.032c0.006-0.01,0.013-0.023,0.017-0.029
		c0.003-0.006,0.025-0.044,0.049-0.085c0.023-0.041,0.045-0.079,0.049-0.085c0.003-0.006,0.014-0.024,0.023-0.04
		c0.009-0.016,0.02-0.035,0.024-0.042c0.021-0.037,0.026-0.045,0.028-0.046c0.001-0.001,0.003-0.003,0.003-0.004
		c0-0.003,0.036-0.068,0.045-0.08c0.002-0.003,0.004-0.008,0.006-0.011c0.002-0.004,0.017-0.031,0.035-0.061l0.032-0.054
		l-3.076-0.001c-1.692,0-3.076,0-3.078,0.002c-0.002,0.002-0.134,0.23-0.198,0.342C9.62,1.466,9.563,1.564,9.545,1.595
		C9.532,1.616,9.519,1.64,9.514,1.648C9.504,1.666,9.43,1.794,9.346,1.939C9.311,2,9.274,2.063,9.265,2.08
		c-0.009,0.017-0.02,0.035-0.023,0.04C9.235,2.132,9.164,2.254,9.156,2.269C9.153,2.275,9.091,2.381,9.019,2.506
		C8.948,2.63,8.867,2.77,8.839,2.818C8.812,2.865,8.78,2.921,8.768,2.941C8.756,2.961,8.73,3.007,8.709,3.043
		C8.688,3.079,8.652,3.141,8.629,3.181C8.606,3.22,8.574,3.276,8.558,3.304C8.542,3.332,8.513,3.382,8.494,3.416
		C8.452,3.488,8.415,3.553,8.363,3.642C8.342,3.678,8.284,3.78,8.232,3.869C8.181,3.958,8.108,4.084,8.07,4.149
		C8.032,4.215,8.001,4.269,8,4.269c-0.001,0-0.017-0.026-0.035-0.059C7.947,4.178,7.919,4.13,7.904,4.104
		c-0.03-0.052-0.129-0.223-0.207-0.358C7.669,3.698,7.624,3.619,7.595,3.57C7.527,3.453,7.281,3.026,7.273,3.011
		C7.269,3.005,7.259,2.987,7.25,2.971C7.24,2.955,7.229,2.936,7.225,2.928C7.22,2.92,7.205,2.893,7.19,2.867
		S7.159,2.814,7.155,2.806C7.15,2.798,7.123,2.752,7.094,2.702c-0.028-0.049-0.056-0.096-0.06-0.104
		C7.03,2.59,7.014,2.562,6.998,2.536C6.983,2.509,6.954,2.459,6.933,2.422S6.874,2.321,6.849,2.277
		C6.823,2.233,6.8,2.193,6.796,2.187C6.78,2.158,6.689,2,6.683,1.99C6.679,1.984,6.672,1.972,6.667,1.963
		C6.662,1.954,6.626,1.891,6.586,1.822c-0.04-0.069-0.075-0.131-0.079-0.138s-0.022-0.039-0.041-0.07S6.394,1.49,6.347,1.408
		C6.3,1.326,6.244,1.228,6.222,1.191C6.2,1.154,6.179,1.117,6.175,1.109C6.171,1.102,6.164,1.091,6.16,1.084L6.153,1.072H3.076
		h-3.077L0.006,1.082z"/>
</g>
<g>
	<rect x="-6.435" y="9.583" width="12.875" height="12.829"/>
	<rect x="-6.435" y="9.583" width="12.875" height="12.829"/>
	<rect x="-6.435" y="9.582" width="12.875" height="12.829"/>
	<g>
		<g>
			<path fill="#FFFFFF" d="M0,15.998C0,15.998,0,15.998,0,15.998C0.001,15.999,0.001,15.999,0,15.998
				C0.001,15.999,0.001,15.999,0,15.998C0.001,15.999,0.001,15.999,0,15.998C0.001,15.999,0.001,15.999,0,15.998L0,15.998
				C0.001,15.999,0.001,15.999,0,15.998C0.001,15.999,0.001,15.999,0,15.998C0.001,15.999,0.001,15.999,0,15.998
				C0.001,15.998,0.001,15.998,0,15.998C0.001,15.998,0.001,15.998,0,15.998C0.001,15.998,0.001,15.998,0,15.998
				C0.001,15.998,0.001,15.998,0,15.998L0,15.998C0.001,15.998,0.001,15.998,0,15.998C0.001,15.998,0.001,15.998,0,15.998
				C0.001,15.998,0.001,15.998,0,15.998C0,15.998,0,15.998,0,15.998z"/>
			<path fill="#FFFFFF" d="M0.002,15.999L0.002,15.999l0-0.001h0V15.999z"/>
			<path fill="#FFFFFF" d="M0.002,15.999L0.002,15.999l0.001-0.001h0C0.003,15.998,0.003,15.998,0.002,15.999L0.002,15.999
				L0.002,15.999l0.001-0.001h0L0.002,15.999L0.002,15.999L0.002,15.999C0.002,15.999,0.002,15.998,0.002,15.999l0-0.001h0
				L0.002,15.999L0.002,15.999z"/>
			<path fill="#FFFFFF" d="M0.003,15.999L0.003,15.999L0.003,15.999L0.003,15.999L0.003,15.999L0.003,15.999L0.003,15.999
				L0.003,15.999l0-0.001h0.001v0H0.003V15.999z M0.004,15.999L0.004,15.999L0.004,15.999L0.004,15.999L0.004,15.999z"/>
		</g>
	</g>
	<g>
		<path fill="#FFFFFF" d="M0.001,15.997C0.001,15.997,0.001,15.997,0.001,15.997C0.001,15.997,0.001,15.997,0.001,15.997
			L0.001,15.997C0.001,15.996,0.001,15.996,0.001,15.997c0-0.001,0-0.001,0-0.001h0v-0.001h0L0.001,15.997L0.001,15.997z
			 M0.001,15.997C0.001,15.997,0.001,15.997,0.001,15.997C0.001,15.997,0.001,15.997,0.001,15.997L0.001,15.997L0.001,15.997
			L0.001,15.997C0.001,15.996,0.001,15.996,0.001,15.997C0.001,15.996,0.001,15.996,0.001,15.997L0.001,15.997z"/>
		<path fill="#FFFFFF" d="M0.002,15.996L0.002,15.996L0.002,15.996l0,0.001h0L0.002,15.996L0.002,15.996L0.002,15.996L0.002,15.996z
			 M0.002,15.997L0.002,15.997L0.002,15.997L0.002,15.997z"/>
		<path fill="#FFFFFF" d="M0.004,15.995L0.004,15.995L0.004,15.995L0.004,15.995H0.003H0.004l-0.001,0.002h0l0-0.001l0,0.001h0
			L0.004,15.995L0.004,15.995z"/>
	</g>
</g>
</svg>
