<?xml version="1.0" encoding="utf-8"?>
<!-- Generator: Adobe Illustrator 17.0.0, SVG Export Plug-In . SVG Version: 6.00 Build 0)  -->
<!DOCTYPE svg PUBLIC "-//W3C//DTD SVG 1.1//EN" "http://www.w3.org/Graphics/SVG/1.1/DTD/svg11.dtd">
<svg version="1.1" id="Calque_1" xmlns="http://www.w3.org/2000/svg" xmlns:xlink="http://www.w3.org/1999/xlink" x="0px" y="0px"
	 width="264.931px" height="266.931px" viewBox="0 0 264.931 266.931" enable-background="new 0 0 264.931 266.931"
	 xml:space="preserve">
<rect x="27" y="0" fill="#34AC98" width="237.931" height="237.931"/>
<rect x="14" y="14" fill="#333333" width="237.931" height="237.931"/>
<rect x="0" y="29" fill="#CA3327" width="237.931" height="237.931"/>
<g>
	<g>
		<path fill="#FFFFFF" d="M12.705,89.985c0-7.309,1.525-13.756,4.576-19.342c3.05-5.585,7.33-9.909,12.84-12.973
			c5.508-3.062,11.834-4.594,18.976-4.594c2.942,0,5.877,0.279,8.803,0.836c2.924,0.557,5.033,1.2,6.325,1.931v4.386
			c-5.527-1.914-10.427-2.871-14.697-2.871c-5.886,0-11.233,1.235-16.042,3.706c-4.81,2.472-8.632,6.16-11.467,11.067
			c-2.836,4.907-4.253,10.894-4.253,17.958c0,10.023,2.826,17.732,8.479,23.126c5.653,5.396,13.79,8.092,24.414,8.092
			c4.953,0,9.726-0.939,14.32-2.819v4.281c-1.796,0.905-4.029,1.601-6.703,2.088s-5.446,0.73-8.317,0.73
			c-11.987,0-21.192-3.08-27.616-9.239C15.917,110.188,12.705,101.4,12.705,89.985z"/>
		<path fill="#FFFFFF" d="M80.428,54.487h4.738v69.796h-4.738V54.487z"/>
		<path fill="#FFFFFF" d="M108.422,54.487L140.83,98.39l13.566,18.845h0.322c-0.503-4.385-0.753-11.589-0.753-21.612V54.487h4.737
			v69.796h-4.092L122.096,79.91l-13.458-18.48h-0.216c0.431,4.386,0.646,12.547,0.646,24.483v38.37h-4.738V54.487H108.422z"/>
		<path fill="#FFFFFF" d="M177.868,54.487h41.021v4.176h-36.283v27.772h33.215v4.177h-33.215v29.494h38.383v4.177h-43.121V54.487z
			 M195.095,50.728l8.506-12.946h5.706l-9.26,12.946H195.095z"/>
	</g>
</g>
<g>
	<path fill="#FFFFFF" d="M44.502,150.87c8.9,0,15.994,2.202,21.284,6.606c4.9,4.202,7.353,9.567,7.353,16.098v13.819
		c0,6.277-2.791,11.644-8.369,16.098c-5.579,4.455-12.335,6.683-20.268,6.683H33.957v35.84H15.672V150.87H44.502z M55.434,173.801
		c0-2.479-0.952-4.479-2.854-5.999c-1.903-1.519-4.436-2.277-7.595-2.277H33.957v30.448h11.028c2.902,0,5.369-0.809,7.401-2.43
		c2.031-1.619,3.047-3.568,3.047-5.847V173.801z"/>
	<path fill="#FFFFFF" d="M99.521,224.145l-4.442,21.868H76.039l20.608-95.144H121.8l20.314,95.144H122.89l-4.278-21.868H99.521z
		 M109.126,172.663l-6.772,37.511h13.544L109.126,172.663z"/>
	<path fill="#FFFFFF" d="M222.121,246.013h-19.63l-14.033-30.298l-14.137,30.298h-19.63l23.798-47.839l-23.798-47.305h20.22
		l13.544,29.386l13.448-29.386h20.219l-23.799,47.306L222.121,246.013z"/>
</g>
<g>
</g>
<g>
</g>
<g>
</g>
<g>
</g>
<g>
</g>
<g>
</g>
<g>
</g>
<g>
</g>
<g>
</g>
<g>
</g>
<g>
</g>
<g>
</g>
<g>
</g>
<g>
</g>
<g>
</g>
</svg>
